#!OML:ASF F:\VICON\USERDATA\INSTALL\rory3\rory3.ASF
:FULLY-SPECIFIED
:DEGREES
4590
root 2.12017 18.5664 6.53332 -4.02413 -17.1053 3.50459
lowerback 7.51539 1.14535 -3.33201
upperback 1.68589 1.31096 1.84474
thorax -2.58665 0.675539 3.65836
lowerneck -15.6029 4.98519 -5.0422
upperneck 14.246 6.51463 8.32324
head 6.42893 3.61236 4.13819
rclavicle 2.62893e-014 1.11319e-014
rhumerus -26.6743 22.9944 -81.6892
rradius 47.4358
rwrist -2.22987
rhand -39.3487 358.041
rfingers 7.12502
rthumb -12.3399 -751.575
lclavicle 2.62893e-014 1.11319e-014
lhumerus 49.251 -17.8715 -5.43781
lradius 69.9019
lwrist -38.6791
lhand -48.3353 18.1454
lfingers 7.12502
lthumb -20.9906 47.0296
rfemur -7.96554 19.6176 3.61381
rtibia 27.5349
rfoot -10.6081 -20.4262
rtoes -16.1641
lfemur -5.34854 0.704535 -21.5943
ltibia 27.2405
lfoot -16.2041 14.6863
ltoes -9.20537
4591
root 2.14018 18.5776 6.55726 -4.05895 -17.098 3.39388
lowerback 7.41493 1.2064 -3.24484
upperback 1.56215 1.40289 1.86858
thorax -2.66562 0.724686 3.62507
lowerneck -15.4966 4.98597 -5.15639
upperneck 14.4226 6.51439 8.43
head 6.45882 3.61396 4.19327
rclavicle -1.26228e-014 -1.74931e-014
rhumerus -26.8462 22.9726 -81.7418
rradius 47.3967
rwrist -2.02215
rhand -39.343 357.755
rfingers 7.12502
rthumb -12.3344 -751.861
lclavicle -1.26228e-014 -1.74931e-014
lhumerus 49.3427 -16.7046 -5.54982
lradius 69.1768
lwrist -37.9033
lhand -47.9623 18.7408
lfingers 7.12502
lthumb -20.6322 47.6642
rfemur -8.00854 19.5535 3.64351
rtibia 27.6901
rfoot -10.1264 -20.304
rtoes -16.7021
lfemur -4.95061 0.513902 -21.6013
ltibia 26.7536
lfoot -16.0961 14.8789
ltoes -9.18474
4592
root 2.15841 18.5958 6.58548 -4.09533 -17.1386 3.34051
lowerback 7.21365 1.29671 -3.23229
upperback 1.44988 1.52991 1.86008
thorax -2.6803 0.790343 3.59864
lowerneck -15.2167 5.01524 -5.16836
upperneck 14.4487 6.53401 8.50482
head 6.41443 3.62572 4.21065
rclavicle -1.80894e-014 1.59028e-015
rhumerus -27.0949 22.9134 -81.8381
rradius 47.4301
rwrist -1.99645
rhand -39.4952 357.827
rfingers 7.12502
rthumb -12.4811 -751.78
lclavicle -1.80894e-014 1.59028e-015
lhumerus 49.5288 -15.4897 -5.567
lradius 68.2473
lwrist -37.2951
lhand -48.284 19.3458
lfingers 7.12502
lthumb -20.9413 48.2354
rfemur -7.98832 19.5355 3.60016
rtibia 27.798
rfoot -9.88102 -20.0915
rtoes -16.8758
lfemur -4.5004 0.307014 -21.6794
ltibia 26.1993
lfoot -16.0266 15.1266
ltoes -8.92828
4593
root 2.17593 18.6115 6.61119 -4.22572 -17.2005 3.39507
lowerback 7.11082 1.34762 -3.35897
upperback 1.47241 1.5912 1.85841
thorax -2.6083 0.820192 3.66454
lowerneck -15.2663 5.06793 -5.16458
upperneck 14.3663 6.62621 8.40856
head 6.39351 3.66303 4.1853
rclavicle -2.20154e-014 -1.03368e-014
rhumerus -27.0226 23.0347 -81.8472
rradius 47.4431
rwrist -2.01211
rhand -39.6591 358.179
rfingers 7.12502
rthumb -12.6392 -751.419
lclavicle -2.20154e-014 -1.03368e-014
lhumerus 49.4981 -13.9892 -5.3208
lradius 67.169
lwrist -36.9119
lhand -48.7276 19.7187
lfingers 7.12502
lthumb -21.3674 48.5605
rfemur -7.93091 19.4544 3.46346
rtibia 27.9097
rfoot -9.42307 -19.7605
rtoes -16.8222
lfemur -3.96129 0.147308 -21.8644
ltibia 25.5749
lfoot -15.8804 15.3993
ltoes -8.74698
4594
root 2.19546 18.6275 6.63735 -4.37089 -17.2109 3.54661
lowerback 7.09252 1.38933 -3.53052
upperback 1.4042 1.63347 1.81433
thorax -2.67586 0.845125 3.71123
lowerneck -15.268 5.12133 -5.14277
upperneck 14.3505 6.71081 8.31363
head 6.38684 3.69697 4.15753
rclavicle -5.84427e-014 1.03368e-014
rhumerus -27.052 23.2212 -81.9042
rradius 47.4279
rwrist -2.02804
rhand -39.1023 358.304
rfingers 7.12502
rthumb -12.1023 -751.326
lclavicle -5.84427e-014 1.03368e-014
lhumerus 49.398 -12.6325 -5.21908
lradius 66.3182
lwrist -36.2748
lhand -48.4917 19.5282
lfingers 7.12502
lthumb -21.1408 48.3956
rfemur -7.90442 19.2974 3.20612
rtibia 28.0184
rfoot -8.93534 -19.4546
rtoes -16.8477
lfemur -3.41299 -0.107691 -22.1727
ltibia 24.8679
lfoot -15.6146 15.7887
ltoes -8.94788
4595
root 2.21618 18.6458 6.66527 -4.50584 -17.2328 3.65536
lowerback 7.03238 1.43505 -3.6383
upperback 1.30034 1.6875 1.78431
thorax -2.75698 0.87656 3.73568
lowerneck -15.1327 5.18711 -5.18421
upperneck 14.39 6.80634 8.29954
head 6.36803 3.73804 4.16321
rclavicle 4.10987e-014 -5.56597e-015
rhumerus -27.2717 23.4568 -81.9828
rradius 47.5527
rwrist -2.21767
rhand -38.4526 357.951
rfingers 7.12502
rthumb -11.4758 -751.715
lclavicle 4.10987e-014 -5.56597e-015
lhumerus 49.3196 -11.3981 -5.03581
lradius 65.4735
lwrist -35.6026
lhand -48.1466 19.4539
lfingers 7.12502
lthumb -20.8093 48.358
rfemur -7.84989 19.1736 2.97585
rtibia 28.1322
rfoot -8.7395 -19.0732
rtoes -16.5011
lfemur -2.84274 -0.364403 -22.4431
ltibia 24.1485
lfoot -15.3567 16.1581
ltoes -9.03345
